# xmcd
#
# Track frame offsets:
#	150
#	10832
#	21325
#	33708
#	45173
#	56827
#	67320
#	77489
#	90142
#	106710
#	118499
#	128911
#	139809
#	151274
#	162280
#	172800
#	185156
#	197188
#	208518
#	220261
#
# Disc length: 3073 seconds
#
# Revision: 1
# Processed by: cddbd v1.5.2PL0 Copyright (c) Steve Scherf et al.
# Submitted via: audiograbber 1.83.01
#
DISCID=160bff14
DTITLE=Various Artist - Monster Tunes
DYEAR=1900
DGENRE=
TTITLE0=Junior Parker - Annie Get Your Yo Yo
TTITLE1=Eventuals - Charlie Chan
TTITLE2=Ian Whitcomb - Fizz
TTITLE3=Entertainers - Fuddy Duddy Walk
TTITLE4=Bob Jenkins and Jades - Hey Man
TTITLE5=Tabbys - Hong Kong Baby
TTITLE6=Emersons - Hungry
TTITLE7=Dynamics - Im The Man
TTITLE8=Craftys - L-O-V-E
TTITLE9=Penguin Feet and Teardrop Kid - Lary Move Your Hand
TTITLE10=Flares - Monkey Walk
TTITLE11=Tony Alamo - Mr Machine
TTITLE12=Uniques - Saturday Night Walk
TTITLE13=Lonnie Woods Trio - Shakin Sugar
TTITLE14=Paramounts - Shedding Teardrops
TTITLE15=Scofflaws - Ska-La-Carte
TTITLE16=Destineers - Take A Look
TTITLE17=Monarchs - This Old Heart
TTITLE18=Alvans - What Can It Be
TTITLE19=Nathaniel Mayer - Work It Out
EXTD=
EXTT0=
EXTT1=
EXTT2=
EXTT3=
EXTT4=
EXTT5=
EXTT6=
EXTT7=
EXTT8=
EXTT9=
EXTT10=
EXTT11=
EXTT12=
EXTT13=
EXTT14=
EXTT15=
EXTT16=
EXTT17=
EXTT18=
EXTT19=
PLAYORDER=
